<svg id="레이어_1" data-name="레이어 1" xmlns="http://www.w3.org/2000/svg" viewBox="0 0 56.1 50.36"><defs><style>.cls-1{fill:#686868;}</style></defs><path id="Icon_awesome-volume-up" data-name="Icon awesome-volume-up" class="cls-1" d="M22.55,5.8l-9.33,9.32H2.52A2.52,2.52,0,0,0,0,17.64H0v15.1a2.52,2.52,0,0,0,2.52,2.52h10.7l9.33,9.33a2.52,2.52,0,0,0,4.3-1.78V7.57a2.53,2.53,0,0,0-2.53-2.51A2.56,2.56,0,0,0,22.55,5.8ZM42.71.44a2.54,2.54,0,0,0-2.85,4.2l.07,0a24.5,24.5,0,0,1,0,41A2.54,2.54,0,0,0,42.71,50h0a29.58,29.58,0,0,0,0-49.51ZM46,25.19A19.35,19.35,0,0,0,37,8.81a2.49,2.49,0,0,0-3.46.76l0,0a2.55,2.55,0,0,0,.78,3.5,14.33,14.33,0,0,1,0,24.21A2.53,2.53,0,0,0,37,41.59h0a19.36,19.36,0,0,0,9-16.39Z"/></svg>